<?xml version="1.0" encoding="UTF-8" standalone="no"?>
<svg
   xmlns:dc="http://purl.org/dc/elements/1.1/"
   xmlns:cc="http://creativecommons.org/ns#"
   xmlns:rdf="http://www.w3.org/1999/02/22-rdf-syntax-ns#"
   xmlns:svg="http://www.w3.org/2000/svg"
   xmlns="http://www.w3.org/2000/svg"
   xmlns:sodipodi="http://sodipodi.sourceforge.net/DTD/sodipodi-0.dtd"
   xmlns:inkscape="http://www.inkscape.org/namespaces/inkscape"
   id="master-artboard"
   viewBox="0 0 265.94141 263.86667"
   version="1.1"
   x="0px"
   y="0px"
   width="265.94141"
   height="263.86667"
   sodipodi:docname="bee.svg"
   inkscape:version="1.0.1 (3bc2e813f5, 2020-09-07)">
  <metadata
     id="metadata88">
    <rdf:RDF>
      <cc:Work
         rdf:about="">
        <dc:format>image/svg+xml</dc:format>
        <dc:type
           rdf:resource="http://purl.org/dc/dcmitype/StillImage" />
        <dc:title></dc:title>
      </cc:Work>
    </rdf:RDF>
  </metadata>
  <defs
     id="defs86" />
  <sodipodi:namedview
     pagecolor="#ffffff"
     bordercolor="#666666"
     borderopacity="1"
     objecttolerance="10"
     gridtolerance="10"
     guidetolerance="10"
     inkscape:pageopacity="0"
     inkscape:pageshadow="2"
     inkscape:window-width="1920"
     inkscape:window-height="986"
     id="namedview84"
     showgrid="false"
     fit-margin-top="0"
     fit-margin-left="0"
     fit-margin-right="0"
     fit-margin-bottom="0"
     inkscape:zoom="0.765"
     inkscape:cx="-20.873293"
     inkscape:cy="392.91511"
     inkscape:window-x="-11"
     inkscape:window-y="-11"
     inkscape:window-maximized="1"
     inkscape:current-layer="master-artboard" />
  <rect
     id="ee-background"
     x="-678.38965"
     y="-97.0849"
     width="1400"
     height="980"
     style="fill:#ffffff;fill-opacity:0" />
  <g
     transform="matrix(-0.86177284,0.50730062,0.50730062,0.86177284,457.39236,-459.80596)"
     id="g79">
    <path
       class="st0"
       d="m 672,240.2 c 19.8,38.4 -7.3,52.3 -40.7,69.5 -33.4,17.2 -71.3,10 -80.2,-7.2 -6.4,-12.5 7.3,-52.3 40.7,-69.5 33.3,-17.2 60.4,-31.2 80.2,7.2 z"
       style="opacity:0.5;fill:#9d9d9c"
       id="path51" />
    <path
       d="m 705.20003,381.29999 a 123.8,90.5 0 0 1 -123.80001,90.5 123.8,90.5 0 0 1 -123.8,-90.5 123.8,90.5 0 0 1 123.8,-90.5 123.8,90.5 0 0 1 123.80001,90.5 z"
       class="st1"
       style="fill:#fed40b"
       id="path53" />
    <path
       class="st2"
       d="m 539.2,296.2 c -13.2,3.5 -25.4,8.6 -36,15 -4.3,30.6 -8.7,90.8 12.2,146.7 14.3,6.6 30.5,11.1 47.9,13 -6.8,-32.6 -26.7,-132.3 -24.1,-174.7 z"
       style="fill:#1e1201"
       id="path55" />
    <path
       class="st2"
       d="m 576.3,290.9 c 7.8,27.6 28.9,109.8 24.5,179.8 18.3,-2.1 35.3,-7.1 50,-14.4 -1.3,-35.8 -6.7,-123.9 -28.8,-160.4 -12.7,-3.2 -26.4,-5 -40.7,-5 -1.6,-0.1 -3.3,-0.1 -5,0 z"
       style="fill:#1e1201"
       id="path57" />
    <path
       class="st2"
       d="m 705.2,381.3 c 0,-24.2 -13,-46.2 -34.3,-62.5 5.9,26.8 14.6,69.9 9.8,116.5 15.5,-15.1 24.5,-33.8 24.5,-54 z"
       style="fill:#1e1201"
       id="path59" />
    <path
       d="m 494.09999,356.70001 a 11.2,11.2 0 0 1 -11.2,11.2 11.2,11.2 0 0 1 -11.2,-11.2 11.2,11.2 0 0 1 11.2,-11.2 11.2,11.2 0 0 1 11.2,11.2 z"
       class="st3"
       style="fill:#f6f6f6"
       id="path61" />
    <path
       d="m 487.89999,356.70001 a 5,5 0 0 1 -5,5 5,5 0 0 1 -5,-5 5,5 0 0 1 5,-5 5,5 0 0 1 5,5 z"
       class="st2"
       style="fill:#1e1201"
       id="path63" />
    <path
       d="m 493.09999,387.29999 a 10.7,6 0 0 1 -10.7,6 10.7,6 0 0 1 -10.7,-6 10.7,6 0 0 1 10.7,-6 10.7,6 0 0 1 10.7,6 z"
       class="st4"
       style="opacity:0.3;fill:#f186bb"
       id="path65" />
    <path
       d="m 441.80001,296.10001 a 7.7,7.7 0 0 1 -7.7,7.7 7.7,7.7 0 0 1 -7.7,-7.7 7.7,7.7 0 0 1 7.7,-7.7 7.7,7.7 0 0 1 7.7,7.7 z"
       class="st2"
       style="fill:#1e1201"
       id="path67" />
    <path
       d="m 451.40001,281.29999 a 7.7,7.7 0 0 1 -7.7,7.7 7.7,7.7 0 0 1 -7.7,-7.7 7.7,7.7 0 0 1 7.7,-7.7 7.7,7.7 0 0 1 7.7,7.7 z"
       class="st2"
       style="fill:#1e1201"
       id="path69" />
    <path
       class="st5"
       d="m 439,296.1 c 0,0 38.9,-2.5 44.5,37.1"
       style="fill:none;stroke:#1d1d1b;stroke-miterlimit:10"
       id="path71" />
    <path
       class="st5"
       d="m 449.2,280.3 c 0,0 36.7,2.3 41.7,39.3"
       style="fill:none;stroke:#1d1d1b;stroke-miterlimit:10"
       id="path73" />
    <path
       class="st0"
       d="m 691,282.2 c 10.2,42 -19.4,49.1 -55.9,58 -36.5,8.8 -71.7,-7.1 -76.2,-25.9 -3.3,-13.7 19.4,-49.1 55.9,-58 36.5,-8.9 66.1,-16 76.2,25.9 z"
       style="opacity:0.5;fill:#9d9d9c"
       id="path75" />
    <path
       class="st2"
       d="m 462.6,406.7 c 1.4,3.6 3.1,7.1 5.1,10.4 10.7,-1.3 15.8,-6.2 15.8,-6.2 -8.8,0.8 -15.9,-1.5 -20.9,-4.2 z"
       style="fill:#1e1201"
       id="path77" />
  </g>
  <path
     class="st6"
     d="m -140.11801,264.16045 c -17.74711,50.14314 -69.26281,80.36858 -121.56398,78.99295 -33.06539,-0.877 -79.72395,-24.17727 -85.68775,-60.72213 -4.35386,-26.76022 20.08531,-57.84999 47.12613,-59.86047 25.61617,-1.84285 41.34947,22.13898 32.95211,45.78333 -10.36782,29.12672 -40.59428,57.93546 -71.88872,59.46072 -41.4075,2.00272 -77.13389,-18.42146 -108.79528,-43.03248 -17.27051,-13.40726 -31.04595,-30.74398 -48.72217,-43.32764"
     style="fill:none;stroke:#1e1201;stroke-width:4.1689;stroke-linecap:round;stroke-miterlimit:10;stroke-dasharray:9.17157, 11.6729"
     id="path81" />
</svg>
