<?xml version="1.0" encoding="utf-8"?>
<svg id="master-artboard" viewBox="0 0 1400 980" version="1.1" xmlns="http://www.w3.org/2000/svg" x="0px" y="0px" style="enable-background:new 0 0 1400 980;" width="1400px" height="980px"><rect id="ee-background" x="0" y="0" width="1400" height="980" style="fill: white; fill-opacity: 0; pointer-events: none;"/>

<g transform="matrix(-0.8617728352546692, 0.507300615310669, 0.507300615310669, 0.8617728352546692, 1071.7296973618913, -345.7276030163971)">
		<path class="st0" d="M672,240.2c19.8,38.4-7.3,52.3-40.7,69.5c-33.4,17.2-71.3,10-80.2-7.2c-6.4-12.5,7.3-52.3,40.7-69.5&#10;&#9;&#9;&#9;C625.1,215.8,652.2,201.8,672,240.2z" style="opacity: 0.5; fill: rgb(157, 157, 156);"/>
		<path d="M 705.200027 381.299988 A 123.800003 90.5 0 0 1 581.400024 471.799988 A 123.800003 90.5 0 0 1 457.600021 381.299988 A 123.800003 90.5 0 0 1 581.400024 290.799988 A 123.800003 90.5 0 0 1 705.200027 381.299988 Z" class="st1" style="fill: rgb(254, 212, 11);"/>
		<path class="st2" d="M539.2,296.2c-13.2,3.5-25.4,8.6-36,15c-4.3,30.6-8.7,90.8,12.2,146.7c14.3,6.6,30.5,11.1,47.9,13&#10;&#9;&#9;&#9;C556.5,438.3,536.6,338.6,539.2,296.2z" style="fill: rgb(30, 18, 1);"/>
		<path class="st2" d="M576.3,290.9c7.8,27.6,28.9,109.8,24.5,179.8c18.3-2.1,35.3-7.1,50-14.4c-1.3-35.8-6.7-123.9-28.8-160.4&#10;&#9;&#9;&#9;c-12.7-3.2-26.4-5-40.7-5C579.7,290.8,578,290.8,576.3,290.9z" style="fill: rgb(30, 18, 1);"/>
		<path class="st2" d="M705.2,381.3c0-24.2-13-46.2-34.3-62.5c5.9,26.8,14.6,69.9,9.8,116.5C696.2,420.2,705.2,401.5,705.2,381.3z" style="fill: rgb(30, 18, 1);"/>
		<path d="M 494.099994 356.700012 A 11.2 11.2 0 0 1 482.899994 367.900012 A 11.2 11.2 0 0 1 471.699994 356.700012 A 11.2 11.2 0 0 1 482.899994 345.500012 A 11.2 11.2 0 0 1 494.099994 356.700012 Z" class="st3" style="fill: rgb(246, 246, 246);"/>
		<path d="M 487.899994 356.700012 A 5 5 0 0 1 482.899994 361.700012 A 5 5 0 0 1 477.899994 356.700012 A 5 5 0 0 1 482.899994 351.700012 A 5 5 0 0 1 487.899994 356.700012 Z" class="st2" style="fill: rgb(30, 18, 1);"/>
		<path d="M 493.099994 387.299988 A 10.7 6 0 0 1 482.399994 393.299988 A 10.7 6 0 0 1 471.699994 387.299988 A 10.7 6 0 0 1 482.399994 381.299988 A 10.7 6 0 0 1 493.099994 387.299988 Z" class="st4" style="opacity: 0.3; fill: rgb(241, 134, 187);"/>
		<path d="M 441.800006 296.100006 A 7.7 7.7 0 0 1 434.100006 303.800006 A 7.7 7.7 0 0 1 426.400006 296.100006 A 7.7 7.7 0 0 1 434.100006 288.400006 A 7.7 7.7 0 0 1 441.800006 296.100006 Z" class="st2" style="fill: rgb(30, 18, 1);"/>
		<path d="M 451.400012 281.299988 A 7.7 7.7 0 0 1 443.700012 288.999988 A 7.7 7.7 0 0 1 436.000012 281.299988 A 7.7 7.7 0 0 1 443.700012 273.599988 A 7.7 7.7 0 0 1 451.400012 281.299988 Z" class="st2" style="fill: rgb(30, 18, 1);"/>
		<path class="st5" d="M439,296.1c0,0,38.9-2.5,44.5,37.1" style="fill: none; stroke: rgb(29, 29, 27); stroke-miterlimit: 10;"/>
		<path class="st5" d="M449.2,280.3c0,0,36.7,2.3,41.7,39.3" style="fill: none; stroke: rgb(29, 29, 27); stroke-miterlimit: 10;"/>
		<path class="st0" d="M691,282.2c10.2,42-19.4,49.1-55.9,58c-36.5,8.8-71.7-7.1-76.2-25.9c-3.3-13.7,19.4-49.1,55.9-58&#10;&#9;&#9;&#9;C651.3,247.4,680.9,240.3,691,282.2z" style="opacity: 0.5; fill: rgb(157, 157, 156);"/>
		<path class="st2" d="M462.6,406.7c1.4,3.6,3.1,7.1,5.1,10.4c10.7-1.3,15.8-6.2,15.8-6.2C474.7,411.7,467.6,409.4,462.6,406.7z" style="fill: rgb(30, 18, 1);"/>
	</g>



<path class="st6" d="M729.4,390.8c125.9-20.7,249,52.6,306.6,164.1c36.4,70.5,41.4,195.5-28.5,250.3&#10;&#9;&#9;c-51.2,40.1-144.8,24.7-180.3-29.8c-33.5-51.7-1.3-112.5,58.1-122.2c73.2-11.9,168.7,18.3,208.1,82.3&#10;&#9;&#9;c52.1,84.7,50.5,183.4,35.4,278.4c-8.2,51.8-28.7,100.8-34.7,152.5" style="fill: none; stroke: rgb(30, 18, 1); stroke-width: 10; stroke-linecap: round; stroke-miterlimit: 10; stroke-dasharray: 22, 28;" transform="matrix(-0.20101131498813626, 0.36522799730300903, -0.36522799730300903, -0.20101131498813626, 930.8883549735182, 173.40327351195793)"/></svg>