<?xml version="1.0" standalone="no"?>
<!DOCTYPE svg PUBLIC "-//W3C//DTD SVG 20010904//EN"
 "http://www.w3.org/TR/2001/REC-SVG-20010904/DTD/svg10.dtd">
<svg version="1.0" xmlns="http://www.w3.org/2000/svg"
 width="512.000000pt" height="512.000000pt" viewBox="0 0 512.000000 512.000000"
 preserveAspectRatio="xMidYMid meet">
<metadata>
Created by potrace 1.11, written by Peter Selinger 2001-2013
</metadata>
<g transform="translate(0.000000,512.000000) scale(0.100000,-0.100000)"
fill="#000000" stroke="none">
<path d="M1998 4582 l-547 -317 0 -645 -1 -645 556 -319 c498 -285 558 -317
577 -307 12 7 261 150 552 319 l530 308 3 645 2 645 -547 314 c-301 173 -554
316 -563 317 -8 1 -261 -140 -562 -315z"/>
<path d="M765 2461 l-550 -319 -2 -643 -3 -644 554 -317 c304 -175 557 -318
562 -318 5 0 257 144 559 319 l550 320 3 353 c2 194 0 484 -3 644 l-7 291
-546 314 c-300 173 -551 315 -556 317 -6 1 -258 -141 -561 -317z"/>
<path d="M3233 2458 l-553 -321 0 -426 c0 -234 3 -524 7 -643 l6 -217 549
-316 c302 -173 553 -315 558 -315 5 0 255 143 557 318 l548 318 3 641 c2 505
-1 643 -10 650 -24 19 -1097 633 -1105 632 -4 0 -257 -144 -560 -321z"/>
</g>
</svg>
